<svg width="24" height="25" viewBox="0 0 24 25" fill="none" xmlns="http://www.w3.org/2000/svg">
<path d="M19.6571 18.9663C20.1143 19.4235 20.1143 20.1092 19.6571 20.5663C19.4286 20.7949 19.2 20.9092 18.8571 20.9092C18.5143 20.9092 18.2857 20.7949 18.0571 20.5663L12 14.5092L5.94286 20.5663C5.71429 20.7949 5.48571 20.9092 5.14286 20.9092C4.8 20.9092 4.57143 20.7949 4.34286 20.5663C3.88571 20.1092 3.88571 19.4235 4.34286 18.9663L10.4 12.9092L4.34286 6.85204C3.88571 6.39489 3.88571 5.70918 4.34286 5.25204C4.8 4.79489 5.48571 4.79489 5.94286 5.25204L12 11.3092L18.0571 5.25204C18.5143 4.79489 19.2 4.79489 19.6571 5.25204C20.1143 5.70918 20.1143 6.39489 19.6571 6.85204L13.6 12.9092L19.6571 18.9663Z" fill="#0E2374"/>
</svg>
