<svg width="18" height="19" viewBox="0 0 18 19" fill="none" xmlns="http://www.w3.org/2000/svg">
<path d="M13.5178 5.00028C13.3531 5.00518 13.1967 5.07404 13.0819 5.19225L6.55482 11.7193L4.46666 9.63114C4.40823 9.57028 4.33824 9.52169 4.2608 9.48822C4.18335 9.45475 4.10001 9.43706 4.01564 9.4362C3.93128 9.43535 3.84759 9.45133 3.76948 9.48322C3.69137 9.51511 3.62041 9.56226 3.56075 9.62192C3.50109 9.68158 3.45394 9.75254 3.42205 9.83065C3.39016 9.90876 3.37417 9.99245 3.37503 10.0768C3.37589 10.1612 3.39357 10.2445 3.42705 10.322C3.46052 10.3994 3.50911 10.4694 3.56997 10.5278L6.10648 13.0643C6.2254 13.1832 6.38667 13.25 6.55482 13.25C6.72298 13.25 6.88425 13.1832 7.00317 13.0643L13.9786 6.08894C14.0702 5.99987 14.1328 5.8852 14.1581 5.75994C14.1835 5.63469 14.1704 5.5047 14.1206 5.38702C14.0708 5.26933 13.9866 5.16944 13.879 5.10043C13.7715 5.03142 13.6456 4.99651 13.5178 5.00028Z" fill="white"/>
</svg>
